<?xml version="1.0" encoding="iso-8859-1"?>
<!-- Generator: Adobe Illustrator 30.4.0, SVG Export Plug-In . SVG Version: 9.03 Build 0)  -->
<svg version="1.1" id="Layer_1" xmlns="http://www.w3.org/2000/svg" xmlns:xlink="http://www.w3.org/1999/xlink" x="0px" y="0px"
	 width="464.4px" height="400.7px" viewBox="0 0 464.4 400.7" enable-background="new 0 0 464.4 400.7" xml:space="preserve">
<g>
	<path fill="#FFFFFF" d="M409.831,103.971H167.467V81.391h242.364c13.564,0,24.6-11.036,24.6-24.6s-11.036-24.6-24.6-24.6H7.39
		V9.612h402.441c26.015,0,47.179,21.164,47.179,47.179S435.846,103.971,409.831,103.971z"/>
	<path fill="#FFFFFF" d="M457.01,343.909h-22.579c0-13.564-11.036-24.6-24.6-24.6H167.467v-22.579h242.364
		C435.846,296.729,457.01,317.894,457.01,343.909z"/>
	<path fill="#FFFFFF" d="M409.831,391.088H7.39v-22.579h402.441c13.564,0,24.6-11.036,24.6-24.6c0-13.564-11.036-24.6-24.6-24.6
		H167.467v-22.579h242.364c26.015,0,47.179,21.164,47.179,47.179S435.846,391.088,409.831,391.088z"/>
	<path fill="#FFFFFF" d="M409.831,247.529H167.467V224.95h242.364c13.564,0,24.6-11.036,24.6-24.6c0-13.564-11.036-24.6-24.6-24.6
		H167.467v-22.579h242.364c26.015,0,47.179,21.165,47.179,47.179C457.01,226.365,435.846,247.529,409.831,247.529z"/>
	<path fill="#FFFFFF" d="M167.467,175.75c-26.015,0-47.179-21.165-47.179-47.179c0-26.015,21.165-47.179,47.179-47.179v22.579
		c-13.564,0-24.6,11.035-24.6,24.6s11.036,24.6,24.6,24.6V175.75z"/>
	<path fill="#FFFFFF" d="M167.467,319.309c-26.015,0-47.179-21.165-47.179-47.18s21.165-47.179,47.179-47.179v22.579
		c-13.564,0-24.6,11.036-24.6,24.6c0,13.565,11.036,24.6,24.6,24.6V319.309z"/>
</g>
</svg>
